# xmcd CD database file
#
# Track frame offsets:
#	150
#	22730
#	44728
#	59767
#	82238
#	97709
#	144114
#	179983
#
# Disc length: 2602 seconds
#
# Revision: 0
# Processed by: cddbd v1.5PL3 Copyright (c) Steve Scherf et al.
# Submitted via: CDex 1.50
#
DISCID=6c0a2808
DTITLE=Jan Gerfast Voodoo Band - Exile
DYEAR=2000
DGENRE=Blues
TTITLE0=Magic Man
TTITLE1=G-Town
TTITLE2=Artificial People
TTITLE3=Love Was On My Side
TTITLE4=You Need A Joint
TTITLE5=Berlin
TTITLE6=Scandinavian Rhythm
TTITLE7=No Guarantees
EXTD=YEAR: 2000
EXTT0=
EXTT1=
EXTT2=
EXTT3=
EXTT4=
EXTT5=
EXTT6=
EXTT7=
PLAYORDER=
